<svg viewBox="-386.5 -315.5 773 631" width="773" height="631" xmlns="http://www.w3.org/2000/svg" style="background-color: rgb(255, 255, 255);"><rect x="0" y="0" width="773" height="631" fill="hsl(0 0% 100%)"/><path d="M-124.90568433237132,225.009900777548L204.8352628687749,-19.78622733466585M204.8352628687749,-19.78622733466585L316.6675513367645,128.92451263032473M316.6675513367645,128.92451263032473L-13.07341551465312,373.7206309301133M-13.07341551465312,373.7206309301133L-124.90568433237132,225.009900777548M-124.90568433237132,225.009900777548L-124.90568433237132,225.009900777548" style="fill:none;stroke:rgb(255,0,0);stroke-opacity:1;stroke-width:1;stroke-linecap:round"/><path d="M33.44184237090154,339.47821031588614L79.71477310934607,305.40699199230477M79.71477310934607,305.40699199230477L23.412235763349926,229.8524780159858M23.412235763349926,229.8524780159858L-22.860694975094603,263.9236957262906M-22.860694975094603,263.9236957262906L33.44184237090154,339.47821031588614M80.75122667521734,304.6438453322364L127.02415741366184,270.57262700865505M127.02415741366184,270.57262700865505L70.72161024252999,195.01811487216588M70.72161024252999,195.01811487216588L24.448689329221196,229.08933074264087M24.448689329221196,229.08933074264087L80.75122667521734,304.6438453322364M80.75122667521734,304.6438453322364L80.75122667521734,304.6438453322364M128.06061097953312,269.8094803485867L174.33354171797762,235.73826202500538M174.33354171797762,235.73826202500538L118.03099454684576,160.18374988851613M118.03099454684576,160.18374988851613L71.75806380840126,194.25496575899118M71.75806380840126,194.25496575899118L128.06061097953312,269.8094803485867M128.06061097953312,269.8094803485867L128.06061097953312,269.8094803485867M175.36999528384888,234.97511475166039L221.6429260222934,200.90389704135563M221.6429260222934,200.90389704135563L165.34037885116155,125.34938490486644M165.34037885116155,125.34938490486644L119.06744811271703,159.42060322844776M119.06744811271703,159.42060322844776L175.36999528384888,234.97511475166039M175.36999528384888,234.97511475166039L175.36999528384888,234.97511475166039M222.67935993789325,200.14075038128726L268.9522906763377,166.06953205770594M268.9522906763377,166.06953205770594L212.6497828057488,90.51501992121672M212.6497828057488,90.51501992121672L166.37683241703286,124.5862431510107M166.37683241703286,124.5862431510107L222.67935993789325,200.14075038128726M222.67935993789325,200.14075038128726L222.67935993789325,200.14075038128726M269.9887638924804,165.30638539763757L316.261694630925,131.23517198026886M316.261694630925,131.23517198026886L259.9591474597931,55.68066474999233M259.9591474597931,55.68066474999233L213.68621672134864,89.751878167361M213.68621672134864,89.751878167361L269.9887638924804,165.30638539763757M269.9887638924804,165.30638539763757L269.9887638924804,165.30638539763757M32.40538880503027,340.2413520697418L-23.89714854096587,264.686842386359M-23.89714854096587,264.686842386359L-70.17007927941037,298.758058256834M-70.17007927941037,298.758058256834L-13.867541933414255,374.31257529953587M-70.899345064793,297.77943564310823L-24.626409413780635,263.7082173195269M-24.626409413780635,263.7082173195269L-80.92894675977675,188.1537051830377M-80.92894675977675,188.1537051830377L-127.20188256430686,222.224921360151M-127.20188256430686,222.224921360151L-70.899345064793,297.77943564310823M-70.899345064793,297.77943564310823L-70.899345064793,297.77943564310823M-23.589965673045054,262.9450682063522L22.682974890535164,228.8738523358772M22.682974890535164,228.8738523358772L-33.61956245546098,153.31934019938797M-33.61956245546098,153.31934019938797L-79.89249810647334,187.39055606986298M-79.89249810647334,187.39055606986298L-23.589965673045054,262.9450682063522M-23.589965673045054,262.9450682063522L-23.589965673045054,262.9450682063522M23.71941863127072,228.11070536917052L69.99234936971523,194.03948735222747M69.99234936971523,194.03948735222747L13.689821848854816,118.48497521573826M13.689821848854816,118.48497521573826L-32.583118714725416,152.5561935393196M-32.583118714725416,152.5561935393196L23.71941863127072,228.11070536917052M23.71941863127072,228.11070536917052L23.71941863127072,228.11070536917052M71.0288029355865,193.2763406921591L117.301733674031,159.20512236857778M117.301733674031,159.20512236857778L60.99920615317059,83.65061023208855M60.99920615317059,83.65061023208855L14.726265589590374,117.72183346188254M14.726265589590374,117.72183346188254L71.0288029355865,193.2763406921591M71.0288029355865,193.2763406921591L71.0288029355865,193.2763406921591M118.33818723990227,158.44197570850937L164.61111797834678,124.3707622911407M164.61111797834678,124.3707622911407L108.30859045748639,48.81624524843883M108.30859045748639,48.81624524843883L62.03565971904186,82.88746847823282M62.03565971904186,82.88746847823282L118.33818723990227,158.44197570850937M118.33818723990227,158.44197570850937L118.33818723990227,158.44197570850937M165.6475715442181,123.60761072485967L211.920521932934,89.53639730749097M211.920521932934,89.53639730749097L155.61797476180217,13.981880264789096M155.61797476180217,13.981880264789096L109.34502437308623,48.053093682157794M109.34502437308623,48.053093682157794L165.6475715442181,123.60761072485967M165.6475715442181,123.60761072485967L165.6475715442181,123.60761072485967M212.95695584853385,88.77324574120995L259.2298865869784,54.70203232384126M259.2298865869784,54.70203232384126L202.92735906611793,-20.852484718860605M202.92735906611793,-20.852484718860605L156.65440867740202,13.218728698508093M156.65440867740202,13.218728698508093L212.95695584853385,88.77324574120995M212.95695584853385,88.77324574120995L212.95695584853385,88.77324574120995" style="fill:none;stroke:rgb(0,127,255);stroke-opacity:1;stroke-width:1;stroke-linecap:round"/><path d="M-141.97565159017896,219.4420350557285L204.29996982511386,-37.62923964779215M204.29996982511386,-37.62923964779215L330.80328848467525,130.59055451176698M330.80328848467525,130.59055451176698L-15.472330474333626,387.66184025426617M-15.472330474333626,387.66184025426617L-141.97565159017896,219.4420350557285" style="fill:none;stroke:rgb(0,0,0);stroke-opacity:1;stroke-width:1;stroke-linecap:round"/><path d="M-305.6633237722213,-298.63311976989644L-87.50493956476625,1.8240890536707373M-87.50493956476625,1.8240890536707373L-201.61433587249238,-21.287489157829537M-201.61433587249238,-21.287489157829537L-297.2692190798133,47.80083585221526M-297.2692190798133,47.80083585221526L-257.2223785883777,102.95509498373494M-257.2223785883777,102.95509498373494L-293.60892372249083,129.23588051035185M-293.60892372249083,129.23588051035185L-501.5505324871507,-157.1503496643002M-501.5505324871507,-157.1503496643002L-305.6633237722213,-298.63311976989644M-305.6633237722213,-298.63311976989644L-305.6633237722213,-298.63311976989644" style="fill:none;stroke:rgb(255,0,0);stroke-opacity:1;stroke-width:1;stroke-linecap:round"/><path d="M-426.2775150390265,-138.42168746728734L-350.21728806768004,-193.19146633777387M-350.21728806768004,-193.19146633777387L-383.9096041381275,-239.71888644487512M-383.9096041381275,-239.71888644487512L-459.9698114592026,-184.9491075743885M-382.9244181303823,-240.42832479499364L-349.23212171020623,-193.90086543819115M-349.23212171020623,-193.90086543819115L-273.1719045639953,-248.67064430867777M-273.1719045639953,-248.67064430867777L-306.86421080930717,-295.1981036654803M-306.86421080930717,-295.1981036654803L-382.9244181303823,-240.42832479499364M-382.9244181303823,-240.42832479499364L-382.9244181303823,-240.42832479499364M-391.830549945094,-90.8520896677091L-315.77032297374745,-145.6218881630463M-315.77032297374745,-145.6218881630463L-349.46263904419493,-192.1493082701475M-349.46263904419493,-192.1493082701475L-425.5228463652701,-137.37952939966092M-348.4774530364497,-192.85870737056476L-314.78515661627364,-146.33128726346357M-314.78515661627364,-146.33128726346357L-238.7249394700628,-201.10106613395013M-238.7249394700628,-201.10106613395013L-272.4172457153746,-247.62852549075262M-272.4172457153746,-247.62852549075262L-348.4774530364497,-192.85870737056476M-348.4774530364497,-192.85870737056476L-348.4774530364497,-192.85870737056476M-391.07588127133755,-89.80993160008268L-357.38358485116146,-43.28249186813083M-357.38358485116146,-43.28249186813083L-281.32336770495056,-98.05229036346807M-281.32336770495056,-98.05229036346807L-315.01567395026234,-144.5797300954199M-315.01567395026234,-144.5797300954199L-391.07588127133755,-89.80993160008268M-314.03048794251714,-145.28912919583718L-280.33819152234105,-98.76168946388535M-280.33819152234105,-98.76168946388535L-204.27797437613015,-153.53148795922255M-204.27797437613015,-153.53148795922255L-237.970280621442,-200.05890806632374M-237.970280621442,-200.05890806632374L-314.03048794251714,-145.28912919583718M-314.03048794251714,-145.28912919583718L-314.03048794251714,-145.28912919583718M-279.58353267372024,-97.71955102110954L-245.8912264284085,-51.1921112891577M-245.8912264284085,-51.1921112891577L-169.83100928219758,-105.9619097844949M-169.83100928219758,-105.9619097844949L-203.52331552750937,-152.48932989159616M-203.52331552750937,-152.48932989159616L-279.58353267372024,-97.71955102110954M-279.58353267372024,-97.71955102110954L-279.58353267372024,-97.71955102110954M-356.6289161774049,-42.24035342535506L-322.9366197572288,4.287086306596779M-322.9366197572288,4.287086306596779L-246.87640261101797,-50.482692563889806M-246.87640261101797,-50.482692563889806L-280.56870885632975,-97.01013229584169M-280.56870885632975,-97.01013229584169L-356.6289161774049,-42.24035342535506M-356.6289161774049,-42.24035342535506L-356.6289161774049,-42.24035342535506" style="fill:none;stroke:rgb(0,127,255);stroke-opacity:1;stroke-width:1;stroke-linecap:round"/><path d="M-299.90145153715946,-315.4924756951115L-57.73755396937712,18.026169481730367M-57.73755396937712,18.026169481730367L-198.88435313998417,-10.561527048361192M-198.88435313998417,-10.561527048361192L-283.34805307063664,50.44377336052816M-283.34805307063664,50.44377336052816L-243.301212579201,105.59803249204786M-243.301212579201,105.59803249204786L-295.4341981338407,143.25194392100371M-295.4341981338407,143.25194392100371L-515.4717279717345,-159.7932675477625M-515.4717279717345,-159.7932675477625L-299.90145153715946,-315.4924756951115" style="fill:none;stroke:rgb(0,0,0);stroke-opacity:1;stroke-width:1;stroke-linecap:round"/><path d="M-285.1242804045306,-345.1871511744461L-435.29087838485896,-237.3007908501807M-354.6607646425845,-316.3420354786974L-354.81497997266246,-312.8419826193077M-354.81497997266246,-312.8419826193077L-355.6405271754188,-309.47639923640514M-355.6405271754188,-309.47639923640514L-357.10565141224424,-306.37469159501563M-357.10565141224424,-306.37469159501563L-359.15407430580166,-303.6559825384369M-359.15407430580166,-303.6559825384369L-361.7070768687958,-301.42483327080276M-361.7070768687958,-301.42483327080276L-364.6665256457721,-299.76692588994484M-364.6665256457721,-299.76692588994484L-367.9187241663135,-298.74596266099417M-367.9187241663135,-298.74596266099417L-371.33865740366747,-298.40123253490333M-371.33865740366747,-298.40123253490333L-374.79492399287085,-298.74596266099417M-374.79492399287085,-298.74596266099417L-378.15468809914717,-299.76692588994484M-378.15468809914717,-299.76692588994484L-381.2888474392887,-301.42483327080276M-381.2888474392887,-301.42483327080276L-384.07694584951173,-303.6559825384369M-384.07694584951173,-303.6559825384369L-386.4118500500525,-306.3746523453143M-386.4118500500525,-306.3746523453143L-388.20381725135115,-309.47639923640514" style="fill:none;stroke:rgb(255,0,0);stroke-opacity:1;stroke-width:1;stroke-linecap:round"/><path d="M-267.25008894473757,-345.35396240476445L-437.1768721348863,-223.27102438757944" style="fill:none;stroke:rgb(0,0,0);stroke-opacity:1;stroke-width:1;stroke-linecap:round"/><path d="M93.86322871807269,175.84913264094718L98.92493006169326,169.21450842552863L101.09065536089807,163.4375710770193zM100.33013116905671,165.28063411426618L100.91780439589951,163.76260911892635L101.43813022465093,162.129230714035zM100.8187326623469,164.03060515262044L101.39270592618918,162.40575314174825L101.82133890233986,160.81376544528024zM101.23911682476549,160.82594928042562L101.75512253392502,162.55331025217401L102.3813001288995,164.17831692937665zM101.62783553603981,162.32954872698127L102.45137424543603,164.80403750891435L102.62468805387977,164.2207413896548zM99.25495452133646,168.27056626843935L93.62181073995896,175.5002773988151L96.82047112190521,175.40628721661352zM104.38941146912609,169.874945993523L106.29937619591657,175.60325281121524L109.47424917280564,175.25845517758842zM100.59355509065738,159.3072888180311L93.97426361430944,175.91190863590901L100.9563912624991,164.40635218405342zM100.33929887250072,165.28390127378464L101.15022258872091,163.0871097619897L101.85811001616992,160.82458792716332zM101.22775337492901,160.82974961357132L101.99846737631502,163.25412540614752L102.77812742167879,165.21115324891386zM99.15872868521411,168.21322431803722L96.12301501305159,175.94695803607203L98.18834479693203,170.7047163210123zM104.68409181534538,170.816580719821L109.16419373107814,175.85642212409414L102.42661103702622,159.3162333257049zM100.0911714297023,159.38588578711332L100.56475834578742,165.32129170680082L102.00525877050397,161.67814285942538zM101.21103681049232,160.83563331120197L102.40148941752466,164.28468666692712L104.67650005170564,170.07786335870978zM105.29530061707152,168.99700967524066L98.32901143907142,168.64573126841978L97.67444457144867,171.35040242425603zM103.5014287187141,159.85968109433287L99.57480445255555,159.92727145678666L101.6285836020558,162.52686872988625zM104.63028996666324,168.55173619574398L97.20218097639956,170.8358670159057L105.58669677185895,171.16506325472548zM105.20874920271793,171.65553174639697L102.84541016279259,159.3380374920549L101.12567266834319,161.75543764651414zM101.1985815617104,160.84014977918017L104.31315372652101,169.14621886459176L105.27155889322104,171.63830074669562zM-271.118709393604,-23.284664197706615L-268.15162216358084,-25.490589408520215L-268.47420144699896,-31.970551359941467zM-263.7128633235828,-25.81689868801815L-268.7389234289965,-26.041447141818406L-271.40461582234167,-23.570439481762936zM-271.5822919638006,-24.05649086847212L-264.5821903155963,-23.999286794853443L-261.31737224796234,-24.443665069929715zM-263.15334652949934,-23.821540314889585L-260.39175622870414,-24.95044449306304L-258.8794070666683,-27.227216411932993zM-259.623374727171,-25.491570343287446L-258.8752981648299,-28.25524565461428L-259.57657358427343,-30.54455185625728zM-258.7620804355465,-28.81616089486715L-259.92345398430706,-30.904271080866458L-262.09357957821624,-31.986519309801256zM-263.7191478646983,-31.410334675510136L-261.46713079178585,-32.0767299433619L-260.0311831956505,-33.71223473672149zM-261.1376573802941,-32.12869540854845L-259.9218002023231,-33.97846758344169L-259.9135456435208,-36.22075745216564zM-259.38959990319034,-34.50870834708126L-261.0396633972462,-38.31792557305945L-266.12441700803043,-39.167192702086396zM-270.74189386718774,-39.79672675537111L-270.6914547224179,-23.087319213063484L-268.31288878784244,-32.567326816481014zM-268.47324000975465,-33.53984049948266L-270.8349551347385,-23.107969438859108L-268.43633785969064,-30.974542687066673zM-262.12349620006665,-26.013252870485804L-264.70936824783,-25.7613390680808L-271.5502792533944,-23.824281953405695zM-271.5694968424937,-23.94607110686804L-262.17893639374205,-24.026216596523483L-258.66365126562744,-26.93316171657278zM-259.36402269779336,-25.512844738258067L-258.9738302288327,-29.78510286409743L-261.84651613161174,-32.21582072454103zM-263.5737497905355,-31.21283038292641L-260.39494074489295,-32.800275600808696L-259.6295889519742,-36.127310860578014zM-271.13708805734,-39.59589610886799L-268.41409327433576,-31.57717841695214L-268.193351672508,-37.42433807317149zM-264.2784266699338,-32.793718358896946L-269.2335941010926,-33.0293997513819L-268.86668139336234,-30.277169985425672zM-263.11373638312375,-25.876274601165086L-271.55766963444484,-23.85340809523144L-258.53716293562576,-26.673810071228857zM-259.0701130250718,-25.596891528504653L-260.93512558223404,-31.950612276964847L-263.6087610972301,-32.238822223881385zM-264.27749062034934,-39.06149594185705L-271.50376024932945,-39.09232650390216L-268.5991556679743,-36.71308230806825zM-261.87510332655614,-33.465975392181456L-265.25367606931525,-32.65220908903822L-269.49632329772186,-30.594398954006227zM-262.06772928851007,-26.56663252035595L-264.0496950603415,-25.531862635894885L-258.52887288915105,-26.586720119071106zM-264.778702517059,-39.537489678967475L-269.53161202185436,-36.97835600434036L-264.7042611589447,-36.74967125946372zM-262.034541908043,-33.72209406140631L-269.5482846156947,-30.79616014623301L-264.67547437845656,-30.634801222915247zM-261.54097217339375,-27.8299450824325L-262.8096462141487,-25.863171679099104L-258.5795616968297,-26.35013817708777zM-265.5474832541802,-39.697810103420224L-265.69930800398475,-36.59022050752235L-263.0359990825635,-36.849257557840744zM-261.41712474709715,-29.26204916521801L-261.97538094938864,-26.771076471213235L-258.6992562573521,-26.040634097025293zM-265.91988977033935,-39.52414540433871L-264.03900214024276,-36.695477627619894L-261.95538244034736,-36.40478929057304zM-262.59083081910023,-31.209450291899778L-261.3228762983169,-28.288726100043004L-258.8854646074202,-25.712929711639582zM-259.15907721523047,-34.73714110465969L-266.00725790933654,-39.43289175793384L-262.91744304316467,-36.60442329085724zM-262.16416322509787,-30.305368651699425L-258.9769391416215,-25.64068772265987L-263.3034553597842,-32.72950310957782zM-259.0957977764249,-34.869430944964435L-263.670724567677,-37.26521774579366L-262.33565136563135,-35.84259900361123zM-265.78062416309876,-30.879185512961758L-261.3130479302656,-29.826510221843975L-262.68266255256907,-32.4822645280471zM-259.0596368045549,-35.18772963708232L-262.95370544584017,-36.626705600871226L-262.2713801684054,-34.45676531697308zM-262.5220907236813,-34.0301987329331L-265.63475907049235,-30.397886534259175L-262.3478516372251,-31.583243380626016zM-263.2375719481329,-30.97534821428583L-259.21682853912495,-35.75790600561561L-262.4224533852763,-35.36440785186318zM-261.72667870120273,-35.9499795964534L-263.13957382567133,-33.19382550645359L-262.819283415192,-30.876232907668197z" style="fill:rgb(0,0,0);fill-opacity:1"/></svg>