  0
SECTION
  2
HEADER
  9
$ACADVER
  1
AC1015
  9
$ACADMAINTVER
 70
20
  9
$DWGCODEPAGE
  3
ANSI_1252
  9
$LASTSAVEDBY
  1
unknown
  9
$INSBASE
 10
0.0
 20
0.0
 30
0.0
  9
$EXTMIN
 10
1e+20
 20
1e+20
 30
1e+20
  9
$EXTMAX
 10
-1e+20
 20
-1e+20
 30
-1e+20
  9
$LIMMIN
 10
0.0
 20
0.0
  9
$LIMMAX
 10
12.0
 20
9.0
  9
$ORTHOMODE
 70
0
  9
$REGENMODE
 70
1
  9
$FILLMODE
 70
1
  9
$QTEXTMODE
 70
0
  9
$MIRRTEXT
 70
0
  9
$LTSCALE
 40
1.0
  9
$ATTMODE
 70
1
  9
$TEXTSIZE
 40
0.2
  9
$TRACEWID
 40
0.05
  9
$TEXTSTYLE
  7
Notes
  9
$CLAYER
  8
0
  9
$CELTYPE
  6
ByLayer
  9
$CECOLOR
 62
256
  9
$CELTSCALE
 40
1.0
  9
$DISPSILH
 70
0
  9
$DIMSCALE
 40
1.0
  9
$DIMASZ
 40
3.0
  9
$DIMEXO
 40
1.5
  9
$DIMDLI
 40
6.0
  9
$DIMRND
 40
0.0
  9
$DIMDLE
 40
0.0
  9
$DIMEXE
 40
3.0
  9
$DIMTP
 40
0.0
  9
$DIMTM
 40
0.0
  9
$DIMTXT
 40
3.0
  9
$DIMCEN
 40
3.0
  9
$DIMTSZ
 40
0.0
  9
$DIMTOL
 70
0
  9
$DIMLIM
 70
0
  9
$DIMTIH
 70
0
  9
$DIMTOH
 70
0
  9
$DIMSE1
 70
0
  9
$DIMSE2
 70
0
  9
$DIMTAD
 70
1
  9
$DIMZIN
 70
3
  9
$DIMBLK
  1

  9
$DIMASO
 70
1
  9
$DIMSHO
 70
1
  9
$DIMPOST
  1

  9
$DIMAPOST
  1

  9
$DIMALT
 70
0
  9
$DIMALTD
 70
2
  9
$DIMALTF
 40
25.4
  9
$DIMLFAC
 40
1.0
  9
$DIMTOFL
 70
0
  9
$DIMTVP
 40
0.0
  9
$DIMTIX
 70
0
  9
$DIMSOXD
 70
0
  9
$DIMSAH
 70
0
  9
$DIMBLK1
  1

  9
$DIMBLK2
  1

  9
$DIMSTYLE
  2
Civil-Metric
  9
$DIMCLRD
 70
0
  9
$DIMCLRE
 70
0
  9
$DIMCLRT
 70
0
  9
$DIMTFAC
 40
1.0
  9
$DIMGAP
 40
2.0
  9
$DIMJUST
 70
0
  9
$DIMSD1
 70
0
  9
$DIMSD2
 70
0
  9
$DIMTOLJ
 70
1
  9
$DIMTZIN
 70
0
  9
$DIMALTZ
 70
0
  9
$DIMALTTZ
 70
0
  9
$DIMUPT
 70
0
  9
$DIMDEC
 70
2
  9
$DIMTDEC
 70
2
  9
$DIMALTU
 70
2
  9
$DIMALTTD
 70
2
  9
$DIMTXSTY
  7
Standard
  9
$DIMAUNIT
 70
0
  9
$DIMADEC
 70
2
  9
$DIMALTRND
 40
0.0
  9
$DIMAZIN
 70
2
  9
$DIMDSEP
 70
46
  9
$DIMATFIT
 70
3
  9
$DIMFRAC
 70
1
  9
$DIMLDRBLK
  1

  9
$DIMLUNIT
 70
2
  9
$DIMLWD
 70
-2
  9
$DIMLWE
 70
-2
  9
$DIMTMOVE
 70
0
  9
$LUNITS
 70
4
  9
$LUPREC
 70
4
  9
$SKETCHINC
 40
0.1
  9
$FILLETRAD
 40
0.0
  9
$AUNITS
 70
0
  9
$AUPREC
 70
5
  9
$MENU
  1
.
  9
$ELEVATION
 40
0.0
  9
$PELEVATION
 40
0.0
  9
$THICKNESS
 40
0.0
  9
$LIMCHECK
 70
0
  9
$CHAMFERA
 40
0.0
  9
$CHAMFERB
 40
0.0
  9
$CHAMFERC
 40
0.0
  9
$CHAMFERD
 40
0.0
  9
$SKPOLY
 70
0
  9
$TDCREATE
 40
2460900.697662037
  9
$TDUPDATE
 40
2460900.6976736113
  9
$TDINDWG
 40
0.0
  9
$TDUSRTIMER
 40
0.0
  9
$USRTIMER
 70
1
  9
$ANGBASE
 50
0.0
  9
$ANGDIR
 70
0
  9
$PDMODE
 70
0
  9
$PDSIZE
 40
0.0
  9
$PLINEWID
 40
0.0
  9
$SPLFRAME
 70
0
  9
$SPLINETYPE
 70
6
  9
$SPLINESEGS
 70
8
  9
$HANDSEED
  5
608
  9
$SURFTAB1
 70
6
  9
$SURFTAB2
 70
6
  9
$SURFTYPE
 70
6
  9
$SURFU
 70
6
  9
$SURFV
 70
6
  9
$UCSBASE
  2

  9
$UCSNAME
  2

  9
$UCSORG
 10
0.0
 20
0.0
 30
0.0
  9
$UCSXDIR
 10
1.0
 20
0.0
 30
0.0
  9
$UCSYDIR
 10
0.0
 20
1.0
 30
0.0
  9
$UCSORTHOREF
  2

  9
$UCSORTHOVIEW
 70
0
  9
$UCSORGTOP
 10
0.0
 20
0.0
 30
0.0
  9
$UCSORGBOTTOM
 10
0.0
 20
0.0
 30
0.0
  9
$UCSORGLEFT
 10
0.0
 20
0.0
 30
0.0
  9
$UCSORGRIGHT
 10
0.0
 20
0.0
 30
0.0
  9
$UCSORGFRONT
 10
0.0
 20
0.0
 30
0.0
  9
$UCSORGBACK
 10
0.0
 20
0.0
 30
0.0
  9
$PUCSBASE
  2

  9
$PUCSNAME
  2

  9
$PUCSORG
 10
0.0
 20
0.0
 30
0.0
  9
$PUCSXDIR
 10
1.0
 20
0.0
 30
0.0
  9
$PUCSYDIR
 10
0.0
 20
1.0
 30
0.0
  9
$PUCSORTHOREF
  2

  9
$PUCSORTHOVIEW
 70
0
  9
$PUCSORGTOP
 10
0.0
 20
0.0
 30
0.0
  9
$PUCSORGBOTTOM
 10
0.0
 20
0.0
 30
0.0
  9
$PUCSORGLEFT
 10
0.0
 20
0.0
 30
0.0
  9
$PUCSORGRIGHT
 10
0.0
 20
0.0
 30
0.0
  9
$PUCSORGFRONT
 10
0.0
 20
0.0
 30
0.0
  9
$PUCSORGBACK
 10
0.0
 20
0.0
 30
0.0
  9
$USERI1
 70
0
  9
$USERI2
 70
0
  9
$USERI3
 70
0
  9
$USERI4
 70
0
  9
$USERI5
 70
0
  9
$USERR1
 40
0.0
  9
$USERR2
 40
0.0
  9
$USERR3
 40
0.0
  9
$USERR4
 40
0.0
  9
$USERR5
 40
0.0
  9
$WORLDVIEW
 70
1
  9
$SHADEDGE
 70
3
  9
$SHADEDIF
 70
70
  9
$TILEMODE
 70
1
  9
$MAXACTVP
 70
64
  9
$PINSBASE
 10
0.0
 20
0.0
 30
0.0
  9
$PLIMCHECK
 70
0
  9
$PEXTMIN
 10
0.62886676639706
 20
0.7999999523162842
 30
0.0
  9
$PEXTMAX
 10
9.028866384927335
 20
7.199999570846558
 30
0.0
  9
$PLIMMIN
 10
-0.7005418191744587
 20
-0.2281003861915408
  9
$PLIMMAX
 10
10.29945794052965
 20
8.27189937351257
  9
$UNITMODE
 70
0
  9
$VISRETAIN
 70
1
  9
$PLINEGEN
 70
0
  9
$PSLTSCALE
 70
1
  9
$TREEDEPTH
 70
3020
  9
$CMLSTYLE
  2
Standard
  9
$CMLJUST
 70
0
  9
$CMLSCALE
 40
1.0
  9
$PROXYGRAPHICS
 70
1
  9
$MEASUREMENT
 70
0
  9
$CELWEIGHT
370
-1
  9
$ENDCAPS
280
0
  9
$JOINSTYLE
280
0
  9
$LWDISPLAY
290
0
  9
$INSUNITS
 70
1
  9
$HYPERLINKBASE
  1

  9
$STYLESHEET
  1

  9
$XEDIT
290
1
  9
$CEPSNTYPE
380
0
  9
$PSTYLEMODE
290
1
  9
$FINGERPRINTGUID
  2
A2F832E6-779B-11F0-864A-A2879206DAC6
  9
$VERSIONGUID
  2
A34DA474-779B-11F0-864A-A2879206DAC6
  9
$EXTNAMES
290
1
  9
$PSVPSCALE
 40
0.0
  9
$OLESTARTUP
290
0
  0
ENDSEC
  0
SECTION
  2
CLASSES
  0
CLASS
  1
ACDBDICTIONARYWDFLT
  2
AcDbDictionaryWithDefault
  3
ObjectDBX Classes
 90
0
280
0
281
0
  0
CLASS
  1
ACDBPLACEHOLDER
  2
AcDbPlaceHolder
  3
ObjectDBX Classes
 90
0
280
0
281
0
  0
CLASS
  1
LAYOUT
  2
AcDbLayout
  3
ObjectDBX Classes
 90
0
280
0
281
0
  0
CLASS
  1
DICTIONARYVAR
  2
AcDbDictionaryVar
  3
ObjectDBX Classes
 90
0
280
0
281
0
  0
CLASS
  1
TABLESTYLE
  2
AcDbTableStyle
  3
ObjectDBX Classes
 90
4095
280
0
281
0
  0
CLASS
  1
MATERIAL
  2
AcDbMaterial
  3
ObjectDBX Classes
 90
1153
280
0
281
0
  0
CLASS
  1
VISUALSTYLE
  2
AcDbVisualStyle
  3
ObjectDBX Classes
 90
4095
280
0
281
0
  0
CLASS
  1
SCALE
  2
AcDbScale
  3
ObjectDBX Classes
 90
1153
280
0
281
0
  0
CLASS
  1
MLEADERSTYLE
  2
AcDbMLeaderStyle
  3
ACDB_MLEADERSTYLE_CLASS
 90
4095
280
0
281
0
  0
CLASS
  1
CELLSTYLEMAP
  2
AcDbCellStyleMap
  3
ObjectDBX Classes
 90
1152
280
0
281
0
  0
CLASS
  1
EXACXREFPANELOBJECT
  2
ExAcXREFPanelObject
  3
EXAC_ESW
 90
33793
280
0
281
0
  0
CLASS
  1
NPOCOLLECTION
  2
AcDbImpNonPersistentObjectsCollection
  3
ObjectDBX Classes
 90
33921
280
0
281
0
  0
CLASS
  1
LAYER_INDEX
  2
AcDbLayerIndex
  3
ObjectDBX Classes
 90
32768
280
0
281
0
  0
CLASS
  1
SPATIAL_INDEX
  2
AcDbSpatialIndex
  3
ObjectDBX Classes
 90
32768
280
0
281
0
  0
CLASS
  1
IDBUFFER
  2
AcDbIdBuffer
  3
ObjectDBX Classes
 90
32768
280
0
281
0
  0
CLASS
  1
DIMASSOC
  2
AcDbDimAssoc
  3
"AcDbDimAssoc|Product Desc:     AcDim ARX App For Dimension|Company:          Autodesk, Inc.|WEB Address:      www.autodesk.com"
 90
32768
280
0
281
0
  0
CLASS
  1
IMAGEDEF
  2
AcDbRasterImageDef
  3
ISM
 90
0
280
0
281
0
  0
CLASS
  1
RASTERVARIABLES
  2
AcDbRasterVariables
  3
ISM
 90
0
280
0
281
0
  0
CLASS
  1
IMAGEDEF_REACTOR
  2
AcDbRasterImageDefReactor
  3
ISM
 90
1
280
0
281
0
  0
CLASS
  1
IMAGE
  2
AcDbRasterImage
  3
ISM
 90
2175
280
0
281
1
  0
CLASS
  1
PDFDEFINITION
  2
AcDbPdfDefinition
  3
ObjectDBX Classes
 90
1153
280
0
281
0
  0
CLASS
  1
PDFUNDERLAY
  2
AcDbPdfReference
  3
ObjectDBX Classes
 90
4095
280
0
281
1
  0
CLASS
  1
DWFDEFINITION
  2
AcDbDwfDefinition
  3
ObjectDBX Classes
 90
1153
280
0
281
0
  0
CLASS
  1
DWFUNDERLAY
  2
AcDbDwfReference
  3
ObjectDBX Classes
 90
1153
280
0
281
1
  0
CLASS
  1
DGNDEFINITION
  2
AcDbDgnDefinition
  3
ObjectDBX Classes
 90
1153
280
0
281
0
  0
CLASS
  1
DGNUNDERLAY
  2
AcDbDgnReference
  3
ObjectDBX Classes
 90
1153
280
0
281
1
  0
ENDSEC
  0
SECTION
  2
TABLES
  0
TABLE
  2
VPORT
  5
8
330
0
100
AcDbSymbolTable
 70
0
  0
ENDTAB
  0
TABLE
  2
LTYPE
  5
5
330
0
100
AcDbSymbolTable
 70
7
  0
LTYPE
  5
14
330
5
100
AcDbSymbolTableRecord
100
AcDbLinetypeTableRecord
  2
ByBlock
 70
0
  3

 72
65
 73
0
 40
0.0
  0
LTYPE
  5
15
330
5
100
AcDbSymbolTableRecord
100
AcDbLinetypeTableRecord
  2
ByLayer
 70
0
  3

 72
65
 73
0
 40
0.0
  0
LTYPE
  5
16
330
5
100
AcDbSymbolTableRecord
100
AcDbLinetypeTableRecord
  2
Continuous
 70
0
  3
Solid line
 72
65
 73
0
 40
0.0
  0
LTYPE
  5
1B1
330
5
100
AcDbSymbolTableRecord
100
AcDbLinetypeTableRecord
  2
CENTER
 70
0
  3
Center ____ _ ____ _ ____ _ ____ _ ____ _ ____
 72
65
 73
4
 40
2.0
 49
1.25
 74
0
 49
-0.25
 74
0
 49
0.25
 74
0
 49
-0.25
 74
0
  0
LTYPE
  5
1B2
330
5
100
AcDbSymbolTableRecord
100
AcDbLinetypeTableRecord
  2
DASHED
 70
0
  3
Dashed __ __ __ __ __ __ __ __ __ __ __ __ __ _
 72
65
 73
2
 40
0.75
 49
0.5
 74
0
 49
-0.25
 74
0
  0
LTYPE
  5
1B3
330
5
100
AcDbSymbolTableRecord
100
AcDbLinetypeTableRecord
  2
PHANTOM
 70
0
  3
Phantom ______  __  __  ______  __  __  ______
 72
65
 73
6
 40
2.5
 49
1.25
 74
0
 49
-0.25
 74
0
 49
0.25
 74
0
 49
-0.25
 74
0
 49
0.25
 74
0
 49
-0.25
 74
0
  0
LTYPE
  5
39E
330
5
100
AcDbSymbolTableRecord
100
AcDbLinetypeTableRecord
  2
HIDDEN
 70
0
  3
Hidden __ __ __ __ __ __ __ __ __ __ __ __ __ __
 72
65
 73
2
 40
9.525
 49
6.35
 74
0
 49
-3.175
 74
0
  0
ENDTAB
  0
TABLE
  2
LAYER
  5
2
330
0
100
AcDbSymbolTable
 70
14
  0
LAYER
  5
10
330
2
100
AcDbSymbolTableRecord
100
AcDbLayerTableRecord
  2
0
 70
0
 62
7
  6
Continuous
370
-3
390
4AA
  0
LAYER
  5
1B4
330
2
100
AcDbSymbolTableRecord
100
AcDbLayerTableRecord
  2
View Port
 70
0
 62
7
  6
Continuous
290
0
370
-3
390
4AA
  0
LAYER
  5
21D
330
2
100
AcDbSymbolTableRecord
100
AcDbLayerTableRecord
  2
Defpoints
 70
0
 62
7
  6
Continuous
290
0
370
-3
390
4AA
  0
LAYER
  5
59E
330
2
100
AcDbSymbolTableRecord
100
AcDbLayerTableRecord
  2
ground
 70
0
 62
7
  6
Continuous
290
1
390
4AB
  0
LAYER
  5
5A7
330
2
100
AcDbSymbolTableRecord
100
AcDbLayerTableRecord
  2
Segment A-keepouts
 70
0
 62
1
  6
Continuous
290
1
390
4AB
  0
LAYER
  5
5A9
330
2
100
AcDbSymbolTableRecord
100
AcDbLayerTableRecord
  2
Segment A-outlines
 70
0
 62
7
  6
Continuous
290
1
390
4AB
  0
LAYER
  5
5AB
330
2
100
AcDbSymbolTableRecord
100
AcDbLayerTableRecord
  2
Segment A-modules
 70
0
 62
150
  6
Continuous
290
1
390
4AB
  0
LAYER
  5
5BA
330
2
100
AcDbSymbolTableRecord
100
AcDbLayerTableRecord
  2
segment-annotations
 70
0
 62
7
  6
Continuous
290
1
390
4AB
  0
LAYER
  5
5BC
330
2
100
AcDbSymbolTableRecord
100
AcDbLayerTableRecord
  2
Segment B-keepouts
 70
0
 62
1
  6
Continuous
290
1
390
4AB
  0
LAYER
  5
5BE
330
2
100
AcDbSymbolTableRecord
100
AcDbLayerTableRecord
  2
Segment B-outlines
 70
0
 62
7
  6
Continuous
290
1
390
4AB
  0
LAYER
  5
5C0
330
2
100
AcDbSymbolTableRecord
100
AcDbLayerTableRecord
  2
Segment B-modules
 70
0
 62
150
  6
Continuous
290
1
390
4AB
  0
LAYER
  5
5CA
330
2
100
AcDbSymbolTableRecord
100
AcDbLayerTableRecord
  2
Segment C-keepouts
 70
0
 62
1
  6
Continuous
290
1
390
4AB
  0
LAYER
  5
5CE
330
2
100
AcDbSymbolTableRecord
100
AcDbLayerTableRecord
  2
Segment C-outlines
 70
0
 62
7
  6
Continuous
290
1
390
4AB
  0
LAYER
  5
5D0
330
2
100
AcDbSymbolTableRecord
100
AcDbLayerTableRecord
  2
Segment C-modules
 70
0
 62
150
  6
Continuous
290
1
390
4AB
  0
ENDTAB
  0
TABLE
  2
STYLE
  5
3
330
0
100
AcDbSymbolTable
 70
3
  0
STYLE
  5
11
330
3
100
AcDbSymbolTableRecord
100
AcDbTextStyleTableRecord
  2
Standard
 70
0
 40
0.0
 41
1.0
 50
0.0
 71
0
 42
0.2
  3
arial.ttf
  4

  0
STYLE
  5
DC
330
3
100
AcDbSymbolTableRecord
100
AcDbTextStyleTableRecord
  2
Annotative
 70
0
 40
0.0
 41
1.0
 50
0.0
 71
0
 42
0.2
  3
arial.ttf
  4

  0
STYLE
  5
178
330
3
100
AcDbSymbolTableRecord
100
AcDbTextStyleTableRecord
  2
Notes
 70
0
 40
3.0
 41
1.0
 50
0.0
 71
0
 42
0.2
  3
arial.ttf
  4

  0
ENDTAB
  0
TABLE
  2
VIEW
  5
6
330
0
100
AcDbSymbolTable
 70
0
  0
ENDTAB
  0
TABLE
  2
UCS
  5
7
330
0
100
AcDbSymbolTable
 70
0
  0
ENDTAB
  0
TABLE
  2
APPID
  5
9
330
0
100
AcDbSymbolTable
 70
11
  0
APPID
  5
12
330
9
100
AcDbSymbolTableRecord
100
AcDbRegAppTableRecord
  2
ACAD
 70
0
  0
APPID
  5
DD
330
9
100
AcDbSymbolTableRecord
100
AcDbRegAppTableRecord
  2
AcadAnnoPO
 70
0
  0
APPID
  5
DE
330
9
100
AcDbSymbolTableRecord
100
AcDbRegAppTableRecord
  2
AcadAnnotative
 70
0
  0
APPID
  5
DF
330
9
100
AcDbSymbolTableRecord
100
AcDbRegAppTableRecord
  2
ACAD_DSTYLE_DIMJAG
 70
0
  0
APPID
  5
E0
330
9
100
AcDbSymbolTableRecord
100
AcDbRegAppTableRecord
  2
ACAD_DSTYLE_DIMTALN
 70
0
  0
APPID
  5
107
330
9
100
AcDbSymbolTableRecord
100
AcDbRegAppTableRecord
  2
ACAD_MLEADERVER
 70
0
  0
APPID
  5
1B5
330
9
100
AcDbSymbolTableRecord
100
AcDbRegAppTableRecord
  2
AcAecLayerStandard
 70
0
  0
APPID
  5
1BA
330
9
100
AcDbSymbolTableRecord
100
AcDbRegAppTableRecord
  2
ACAD_EXEMPT_FROM_CAD_STANDARDS
 70
0
  0
APPID
  5
237
330
9
100
AcDbSymbolTableRecord
100
AcDbRegAppTableRecord
  2
ACAD_DSTYLE_DIMBREAK
 70
0
  0
APPID
  5
28E
330
9
100
AcDbSymbolTableRecord
100
AcDbRegAppTableRecord
  2
ACAD_PSEXT
 70
0
  0
APPID
  5
482
330
9
100
AcDbSymbolTableRecord
100
AcDbRegAppTableRecord
  2
HATCHBACKGROUNDCOLOR
 70
0
  0
ENDTAB
  0
TABLE
  2
DIMSTYLE
  5
A
330
0
100
AcDbSymbolTable
 70
3
100
AcDbDimStyleTable
 71
3
340
242
340
27
340
E1
  0
DIMSTYLE
105
27
330
A
100
AcDbSymbolTableRecord
100
AcDbDimStyleTableRecord
  2
Standard
 70
0
 41
3.0
 42
2.0
 43
9.0
 44
5.0
140
3.0
141
2.0
147
2.0
340
11
1001
ACAD_DSTYLE_DIMJAG
1070
388
1040
38.0
1001
ACAD_DSTYLE_DIMBREAK
1070
391
1040
90.0
1001
ACAD_DSTYLE_DIMTALN
1070
392
1070
0
  0
DIMSTYLE
105
E1
330
A
100
AcDbSymbolTableRecord
100
AcDbDimStyleTableRecord
  2
Annotative
 70
0
 40
0.0
 41
3.0
 42
2.5
 43
10.0
 44
5.0
140
3.0
141
2.0
147
2.0
340
11
1001
AcadAnnotative
1000
AnnotativeData
1002
{
1070
1
1070
1
1002
}
1001
ACAD_DSTYLE_DIMJAG
1070
388
1040
38.0
1001
ACAD_DSTYLE_DIMBREAK
1070
391
1040
90.0
1001
ACAD_DSTYLE_DIMTALN
1070
392
1070
0
  0
DIMSTYLE
105
242
330
A
100
AcDbSymbolTableRecord
100
AcDbDimStyleTableRecord
  2
Civil-Metric
 70
0
 41
3.0
 42
1.5
 43
6.0
 44
3.0
 73
0
 74
0
 77
1
 78
3
 79
2
140
3.0
141
3.0
147
2.0
179
2
271
2
272
2
276
1
340
11
1001
ACAD_DSTYLE_DIMBREAK
1070
391
1040
3.0
1001
ACAD_DSTYLE_DIMJAG
1070
388
1040
38.0
1001
ACAD_DSTYLE_DIMTALN
1070
392
1070
0
  0
ENDTAB
  0
TABLE
  2
BLOCK_RECORD
  5
1
330
0
100
AcDbSymbolTable
 70
4
  0
BLOCK_RECORD
  5
1F
330
1
100
AcDbSymbolTableRecord
100
AcDbBlockTableRecord
  2
*Model_Space
340
4AF
  0
BLOCK_RECORD
  5
58
330
1
100
AcDbSymbolTableRecord
100
AcDbBlockTableRecord
  2
*Paper_Space
340
4B0
  0
BLOCK_RECORD
  5
238
330
1
100
AcDbSymbolTableRecord
100
AcDbBlockTableRecord
  2
_ArchTick
340
0
  0
BLOCK_RECORD
  5
23C
330
1
100
AcDbSymbolTableRecord
100
AcDbBlockTableRecord
  2
_Open30
340
0
  0
ENDTAB
  0
ENDSEC
  0
SECTION
  2
BLOCKS
  0
BLOCK
  5
5A
330
58
100
AcDbEntity
 67
1
  8
0
100
AcDbBlockBegin
  2
*Paper_Space
 70
0
 10
0.0
 20
0.0
 30
0.0
  3
*Paper_Space
  1

  0
ENDBLK
  5
5B
330
58
100
AcDbEntity
 67
1
  8
0
100
AcDbBlockEnd
  0
BLOCK
  5
20
330
1F
100
AcDbEntity
  8
0
100
AcDbBlockBegin
  2
*Model_Space
 70
0
 10
0.0
 20
0.0
 30
0.0
  3
*Model_Space
  1

  0
ENDBLK
  5
21
330
1F
100
AcDbEntity
  8
0
100
AcDbBlockEnd
  0
BLOCK
  5
23A
330
238
100
AcDbEntity
  8
0
100
AcDbBlockBegin
  2
_ArchTick
 70
0
 10
0.0
 20
0.0
 30
0.0
  3
_ArchTick
  1

  0
LWPOLYLINE
  5
239
330
238
100
AcDbEntity
  8
0
  6
ByBlock
 62
0
100
AcDbPolyline
 90
2
 70
0
 43
0.15
 10
-0.5
 20
-0.5
 10
0.5
 20
0.5
  0
ENDBLK
  5
23B
330
238
100
AcDbEntity
  8
0
100
AcDbBlockEnd
  0
BLOCK
  5
240
330
23C
100
AcDbEntity
  8
0
100
AcDbBlockBegin
  2
_Open30
 70
0
 10
0.0
 20
0.0
 30
0.0
  3
_Open30
  1

  0
LINE
  5
23D
330
23C
100
AcDbEntity
  8
0
  6
ByBlock
 62
0
370
-2
100
AcDbLine
 10
-1.0
 20
0.26794919
 30
0.0
 11
0.0
 21
0.0
 31
0.0
  0
LINE
  5
23E
330
23C
100
AcDbEntity
  8
0
  6
ByBlock
 62
0
370
-2
100
AcDbLine
 10
0.0
 20
0.0
 30
0.0
 11
-1.0
 21
-0.26794919
 31
0.0
  0
LINE
  5
23F
330
23C
100
AcDbEntity
  8
0
  6
ByBlock
 62
0
370
-2
100
AcDbLine
 10
0.0
 20
0.0
 30
0.0
 11
-1.0
 21
0.0
 31
0.0
  0
ENDBLK
  5
241
330
23C
100
AcDbEntity
  8
0
100
AcDbBlockEnd
  0
ENDSEC
  0
SECTION
  2
ENTITIES
  0
IMAGE
  5
5A2
330
1F
100
AcDbEntity
  8
ground
 67
0
100
AcDbRasterImage
 90
0
 10
-2088.594926602093
 20
-2088.594926602093
 30
0.0
 11
4.079287
 21
0.0
 31
0.0
 12
0.0
 22
4.079287
 32
0.0
 13
1024.0
 23
1024.0
340
5A1
 70
3
280
0
281
50
282
50
283
0
360
5A3
 71
1
 91
2
 14
-0.5
 24
-0.5
 14
1023.5
 24
1023.5
  0
IMAGE
  5
5A5
330
1F
100
AcDbEntity
  8
0
 67
0
100
AcDbRasterImage
 90
0
 10
-2011.418409
 20
-2002.7569870000002
 30
0.0
 11
0.787402
 21
0.0
 31
0.0
 12
0.0
 22
0.787402
 32
0.0
 13
5109.0
 23
5087.0
340
5A4
 70
3
280
0
281
50
282
50
283
0
360
5A6
 71
1
 91
2
 14
-0.5
 24
-0.5
 14
5108.5
 24
5086.5
  0
LWPOLYLINE
  5
5A8
330
1F
100
AcDbEntity
  8
Segment A-keepouts
 67
0
100
AcDbPolyline
 90
5
 70
1
 43
0.0
 10
46.15906846873895
 20
-184.54799280183468
 10
302.2088546821313
 20
5.78682594276285
 10
389.04861888029245
 20
-109.83931003616496
 10
132.99883266690006
 20
-300.1741287807624
 10
46.15906846873895
 20
-184.54799280183468
  0
LWPOLYLINE
  5
5AA
330
1F
100
AcDbEntity
  8
Segment A-outlines
 67
0
100
AcDbPolyline
 90
4
 70
1
 43
0.0
 10
32.90393158786494
 20
-180.2188445393235
 10
301.79318255403365
 20
19.660200867743022
 10
400.02528759300463
 20
-111.13470443409429
 10
131.13603662683576
 20
-311.0137498411607
  0
LWPOLYLINE
  5
5AC
330
1F
100
AcDbEntity
  8
Segment A-modules
 67
0
100
AcDbPolyline
 90
5
 70
1
 43
0.0
 10
169.1187681557202
 20
-273.54982891533643
 10
205.05053400618692
 20
-247.0586458070934
 10
161.33060077760044
 20
-188.31321197508228
 10
125.3988349271337
 20
-214.80439508332535
 10
169.1187681557202
 20
-273.54982891533643
  0
LWPOLYLINE
  5
5AD
330
1F
100
AcDbEntity
  8
Segment A-modules
 67
0
100
AcDbPolyline
 90
5
 70
1
 43
0.0
 10
205.85535486386053
 20
-246.46528068279937
 10
241.78712071432724
 20
-219.9740975745563
 10
198.06718748574076
 20
-161.22866374254517
 10
162.13542163527404
 20
-187.71984685078823
 10
205.85535486386053
 20
-246.46528068279937
  0
LWPOLYLINE
  5
5AE
330
1F
100
AcDbEntity
  8
Segment A-modules
 67
0
100
AcDbPolyline
 90
5
 70
1
 43
0.0
 10
242.59194157200088
 20
-219.38073245026237
 10
278.5237074224676
 20
-192.8895493420193
 10
234.8037741938811
 20
-134.14411551000816
 10
198.8720083434144
 20
-160.63529861825126
 10
242.59194157200088
 20
-219.38073245026237
  0
LWPOLYLINE
  5
5AF
330
1F
100
AcDbEntity
  8
Segment A-modules
 67
0
100
AcDbPolyline
 90
5
 70
1
 43
0.0
 10
279.32852828014126
 20
-192.2961842177253
 10
315.260294130608
 20
-165.80500110948222
 10
271.54036090202146
 20
-107.0595672774711
 10
235.60859505155472
 20
-133.5507503857142
 10
279.32852828014126
 20
-192.2961842177253
  0
LWPOLYLINE
  5
5B0
330
1F
100
AcDbEntity
  8
Segment A-modules
 67
0
100
AcDbPolyline
 90
5
 70
1
 43
0.0
 10
316.06511498828155
 20
-165.21163598518825
 10
351.9968808387483
 20
-138.7204528769452
 10
308.2769476101618
 20
-79.97501904493406
 10
272.3451817596951
 20
-106.46620215317711
 10
316.06511498828155
 20
-165.21163598518825
  0
LWPOLYLINE
  5
5B1
330
1F
100
AcDbEntity
  8
Segment A-modules
 67
0
100
AcDbPolyline
 90
5
 70
1
 43
0.0
 10
352.8017016964219
 20
-138.12708775265116
 10
388.7334675468887
 20
-111.6359046444081
 10
345.0135343183021
 20
-52.89047081239697
 10
309.08176846783545
 20
-79.38165392064003
 10
352.8017016964219
 20
-138.12708775265116
  0
LWPOLYLINE
  5
5B2
330
1F
100
AcDbEntity
  8
Segment A-modules
 67
0
100
AcDbPolyline
 90
5
 70
1
 43
0.0
 10
132.38218144757985
 20
-300.63437714787347
 10
168.31394729804657
 20
-274.14319403963043
 10
124.5940140694601
 20
-215.3977602076193
 10
88.66224821899337
 20
-241.88894331586238
 10
132.38218144757985
 20
-300.63437714787347
  0
LWPOLYLINE
  5
5B3
330
1F
100
AcDbEntity
  8
Segment A-modules
 67
0
100
AcDbPolyline
 90
5
 70
1
 43
0.0
 10
88.09596249537984
 20
-241.12803866551405
 10
124.02772834584655
 20
-214.63685555727096
 10
80.30779511726008
 20
-155.89142172525987
 10
44.376029266793346
 20
-182.3826048335029
 10
88.09596249537984
 20
-241.12803866551405
  0
LWPOLYLINE
  5
5B4
330
1F
100
AcDbEntity
  8
Segment A-modules
 67
0
100
AcDbPolyline
 90
5
 70
1
 43
0.0
 10
124.83254920352017
 20
-214.04349043297697
 10
160.7643150539869
 20
-187.55230732473393
 10
117.04438182540042
 20
-128.8068734927228
 10
81.11261597493369
 20
-155.29805660096588
 10
124.83254920352017
 20
-214.04349043297697
  0
LWPOLYLINE
  5
5B5
330
1F
100
AcDbEntity
  8
Segment A-modules
 67
0
100
AcDbPolyline
 90
5
 70
1
 43
0.0
 10
161.56913591166048
 20
-186.95894220043994
 10
197.5009017621272
 20
-160.46775909219687
 10
153.78096853354074
 20
-101.72232526018573
 10
117.84920268307398
 20
-128.2135083684288
 10
161.56913591166048
 20
-186.95894220043994
  0
LWPOLYLINE
  5
5B6
330
1F
100
AcDbEntity
  8
Segment A-modules
 67
0
100
AcDbPolyline
 90
5
 70
1
 43
0.0
 10
198.30572261980083
 20
-159.87439396790288
 10
234.23748847026755
 20
-133.38321085965984
 10
190.51755524168112
 20
-74.63777702764868
 10
154.58578939121438
 20
-101.12896013589175
 10
198.30572261980083
 20
-159.87439396790288
  0
LWPOLYLINE
  5
5B7
330
1F
100
AcDbEntity
  8
Segment A-modules
 67
0
100
AcDbPolyline
 90
5
 70
1
 43
0.0
 10
235.0423093279412
 20
-132.78984573536584
 10
270.974075178408
 20
-106.29866262712277
 10
227.25414194982147
 20
-47.553228795111636
 10
191.32237609935476
 20
-74.0444119033547
 10
235.0423093279412
 20
-132.78984573536584
  0
LWPOLYLINE
  5
5B8
330
1F
100
AcDbEntity
  8
Segment A-modules
 67
0
100
AcDbPolyline
 90
5
 70
1
 43
0.0
 10
271.7788960360815
 20
-105.70529750282878
 10
307.7106618865482
 20
-79.21411439458572
 10
263.99072865796177
 20
-20.468680562574587
 10
228.05896280749502
 20
-46.95986367081765
 10
271.7788960360815
 20
-105.70529750282878
  0
LWPOLYLINE
  5
5B9
330
1F
100
AcDbEntity
  8
Segment A-modules
 67
0
100
AcDbPolyline
 90
5
 70
1
 43
0.0
 10
308.51548274422186
 20
-78.62074927029172
 10
344.4472485946886
 20
-52.12956616204866
 10
300.72731536610206
 20
6.615867669962461
 10
264.79554951563534
 20
-19.875315438280595
 10
308.51548274422186
 20
-78.62074927029172
  0
TEXT
  5
5BB
330
1F
100
AcDbEntity
  8
segment-annotations
 67
0
100
AcDbText
 10
216.46460959043475
 20
-145.67677448670887
 40
12.000000000000002
  1
A
 50
0.0
 51
0.0
  7
STANDARD
 41
1.0
 71
0
 72
0
 11
216.46460959043475
 21
-145.67677448670887
100
AcDbText
 73
0
  0
LWPOLYLINE
  5
5BD
330
1F
100
AcDbEntity
  8
Segment B-keepouts
 67
0
100
AcDbPolyline
 90
8
 70
1
 43
0.0
 10
-94.20249288240204
 20
222.59693930949823
 10
75.20141868415902
 20
-11.015703625584615
 10
-13.406577982664395
 20
6.9540923974016025
 10
-87.68432011360277
 20
-46.763724696848115
 10
-56.587224813394
 20
-89.64747250116923
 10
-84.84203638105798
 20
-110.08141080194147
 10
-246.31244154966114
 20
112.59070909426754
 10
-94.20249288240204
 20
222.59693930949823
  0
LWPOLYLINE
  5
5BF
330
1F
100
AcDbEntity
  8
Segment B-outlines
 67
0
100
AcDbPolyline
 90
7
 70
1
 43
0.0
 10
-89.72828655579977
 20
235.70548150059227
 10
98.3163294817218
 20
-23.613204449452912
 10
-11.286699003354588
 20
-1.3855936302614513
 10
-76.87428071019045
 20
-48.818668690232414
 10
-45.77718540998166
 20
-91.7024164945535
 10
-86.25939356165733
 20
-120.97923335349358
 10
-257.1224809530736
 20
114.64565308765185
  0
LWPOLYLINE
  5
5C1
330
1F
100
AcDbEntity
  8
Segment B-modules
 67
0
100
AcDbPolyline
 90
5
 70
1
 43
0.0
 10
-214.02425566951743
 20
134.2049064883169
 10
-187.86157469101312
 20
98.02871476988399
 10
-128.7994503366611
 20
140.61353176693333
 10
-154.96213131516546
 20
176.7897234853663
 10
-214.02425566951743
 20
134.2049064883169
  0
LWPOLYLINE
  5
5C2
330
1F
100
AcDbEntity
  8
Segment B-modules
 67
0
100
AcDbPolyline
 90
5
 70
1
 43
0.0
 10
-154.19712470700608
 20
177.3413065306111
 10
-128.0344437285017
 20
141.16511481217816
 10
-68.97231937414973
 20
183.7499318092275
 10
-95.13500035265407
 20
219.92612352766042
 10
-154.19712470700608
 20
177.3413065306111
  0
LWPOLYLINE
  5
5C3
330
1F
100
AcDbEntity
  8
Segment B-modules
 67
0
100
AcDbPolyline
 90
5
 70
1
 43
0.0
 10
-187.27556755093022
 20
97.21841911763691
 10
-161.11288657242585
 20
61.042227399203966
 10
-102.05076221807384
 20
103.62704439625331
 10
-128.2134431965782
 20
139.80323611468626
 10
-187.27556755093022
 20
97.21841911763691
  0
LWPOLYLINE
  5
5C4
330
1F
100
AcDbEntity
  8
Segment B-modules
 67
0
100
AcDbPolyline
 90
5
 70
1
 43
0.0
 10
-127.44843658841884
 20
140.35481915993103
 10
-101.28575560991449
 20
104.17862744149812
 10
-42.22363125556249
 20
146.76344443854745
 10
-68.38631223406685
 20
182.93963615698038
 10
-127.44843658841884
 20
140.35481915993103
  0
LWPOLYLINE
  5
5C5
330
1F
100
AcDbEntity
  8
Segment B-modules
 67
0
100
AcDbPolyline
 90
5
 70
1
 43
0.0
 10
-160.52687943234295
 20
60.231931746956874
 10
-134.36419845383858
 20
24.055740028523925
 10
-75.30207409948659
 20
66.64055702557329
 10
-101.46475507799096
 20
102.8167487440062
 10
-160.52687943234295
 20
60.231931746956874
  0
LWPOLYLINE
  5
5C6
330
1F
100
AcDbEntity
  8
Segment B-modules
 67
0
100
AcDbPolyline
 90
5
 70
1
 43
0.0
 10
-100.69974846983159
 20
103.36833178925103
 10
-74.53706749132725
 20
67.19214007081808
 10
-15.47494313697525
 20
109.77695706786744
 10
-41.6376241154796
 20
145.95314878630037
 10
-100.69974846983159
 20
103.36833178925103
  0
LWPOLYLINE
  5
5C7
330
1F
100
AcDbEntity
  8
Segment B-modules
 67
0
100
AcDbPolyline
 90
5
 70
1
 43
0.0
 10
-73.95106035124432
 20
66.381844418571
 10
-47.78837937273997
 20
30.205652700138057
 10
11.273744981612017
 20
72.79046969718742
 10
-14.888935996892338
 20
108.96666141562035
 10
-73.95106035124432
 20
66.381844418571
  0
LWPOLYLINE
  5
5C8
330
1F
100
AcDbEntity
  8
Segment B-modules
 67
0
100
AcDbPolyline
 90
5
 70
1
 43
0.0
 10
-133.77819131375574
 20
23.245444376276826
 10
-107.61551033525139
 20
-12.93074734215612
 10
-48.55338598089938
 20
29.654069654893238
 10
-74.71606695940373
 20
65.83026137332618
 10
-133.77819131375574
 20
23.245444376276826
  0
TEXT
  5
5C9
330
1F
100
AcDbEntity
  8
segment-annotations
 67
0
100
AcDbText
 10
-66.96171381604793
 20
9.121716852892895
 40
12.000000000000002
  1
B
 50
0.0
 51
0.0
  7
STANDARD
 41
1.0
 71
0
 72
0
 11
-66.96171381604793
 21
9.121716852892895
100
AcDbText
 73
0
  0
LWPOLYLINE
  5
5CB
330
1F
100
AcDbEntity
  8
Segment C-keepouts
 67
0
100
AcDbPolyline
 90
5
 70
1
 43
0.0
 10
-173.51465091528124
 20
391.156347439588
 10
-78.25355452294518
 20
258.793791421374
 10
-194.86060974162294
 20
174.9095953633625
 10
-290.12170995111
 20
307.27214863561363
 10
-173.51465091528124
 20
391.156347439588
  0
LWPOLYLINE
  5
5CC
330
1F
100
AcDbEntity
  8
Segment C-keepouts
 67
0
100
AcDbPolyline
 90
33
 70
1
 43
0.0
 10
-146.66855887810604
 20
250.31544277192305
 10
-143.9847077083673
 20
250.0474097792525
 10
-141.37578842187162
 20
249.25360966225654
 10
-138.94206032370016
 20
247.96454771426303
 10
-136.77705021981532
 20
246.22976186301912
 10
-134.9639582343577
 20
244.115918955909
 10
-133.57246047553468
 20
241.70425279039614
 10
-132.656031421857
 20
239.0874423447432
 10
-132.24988892791802
 20
236.36605017685253
 10
-132.36964082199262
 20
233.64465786156174
 10
-133.01068510594905
 20
231.0278469793731
 10
-134.1483868074567
 20
228.61618010496468
 10
-135.73902468815706
 20
226.50233624384165
 10
-137.72147142633483
 20
224.76754923012965
 10
-140.01954270561077
 20
223.47848595588584
 10
-142.54492493549554
 20
222.68468439982448
 10
-145.20056909314536
 20
222.4166499105758
 10
-147.8844202628841
 20
222.6846829032464
 10
-150.49333954937978
 20
223.47848302024235
 10
-152.9270676475512
 20
224.76754496823585
 10
-155.09207775143605
 20
226.50233081947977
 10
-156.9051697368937
 20
228.6161737265899
 10
-158.2966674957167
 20
231.02783989210275
 10
-159.2130965493944
 20
233.64465033775565
 10
-159.61923904333338
 20
236.36604250564636
 10
-159.49948714925875
 20
239.08743482093715
 10
-158.85844286530232
 20
241.7042457031258
 10
-157.7207411637947
 20
244.1159125775342
 10
-156.13010328309434
 20
246.22975643865723
 10
-154.14765654491654
 20
247.96454345236924
 10
-151.84958526564063
 20
249.25360672661304
 10
-149.32420303575583
 20
250.04740828267444
 10
-146.66855887810604
 20
250.31544277192305
  0
LWPOLYLINE
  5
5CD
330
1F
100
AcDbEntity
  8
Segment C-keepouts
 67
0
100
AcDbPolyline
 90
5
 70
1
 43
0.0
 10
-241.7613573934013
 20
322.04977456167046
 10
-252.2492443176653
 20
336.6289490943468
 10
-270.8098240184988
 20
323.2836566529061
 10
-260.3219370942347
 20
308.7044821202297
 10
-241.7613573934013
 20
322.04977456167046
  0
LWPOLYLINE
  5
5CF
330
1F
100
AcDbEntity
  8
Segment C-outlines
 67
0
100
AcDbPolyline
 90
4
 70
1
 43
0.0
 10
-168.9813134596284
 20
404.2724639041038
 10
-64.37392441514524
 20
258.92350282041167
 10
-196.32511908277885
 20
164.00111701081215
 10
-300.93251231892276
 20
309.3500750791285
  0
LWPOLYLINE
  5
5D1
330
1F
100
AcDbEntity
  8
Segment C-modules
 67
0
100
AcDbPolyline
 90
5
 70
1
 43
0.0
 10
-229.03992972851793
 20
336.56336429564413
 10
-202.96819158825812
 20
300.32113328553487
 10
-143.72601259634405
 20
342.9170120920448
 10
-169.79775073660386
 20
379.15924310215405
 10
-229.03992972851793
 20
336.56336429564413
  0
LWPOLYLINE
  5
5D2
330
1F
100
AcDbEntity
  8
Segment C-modules
 67
0
100
AcDbPolyline
 90
5
 70
1
 43
0.0
 10
-202.38422143943748
 20
299.50935844633125
 10
-176.31248329917767
 20
263.267127436222
 10
-117.0703043072636
 20
305.8630062427319
 10
-143.14204244752344
 20
342.10523725284116
 10
-202.38422143943748
 20
299.50935844633125
  0
LWPOLYLINE
  5
5D3
330
1F
100
AcDbEntity
  8
Segment C-modules
 67
0
100
AcDbPolyline
 90
5
 70
1
 43
0.0
 10
-211.33817545788494
 20
238.08321010411208
 10
-177.07982207857307
 20
262.7154011120582
 10
-222.16507648161502
 20
325.38825385528946
 10
-256.42342986092683
 20
300.7560628473434
 10
-211.33817545788494
 20
238.08321010411208
  0
TEXT
  5
5D4
330
1F
100
AcDbEntity
  8
segment-annotations
 67
0
100
AcDbText
 10
-182.65321731911882
 20
284.13678970361406
 40
12.000000000000002
  1
C
 50
0.0
 51
0.0
  7
STANDARD
 41
1.0
 71
0
 72
0
 11
-182.65321731911882
 21
284.13678970361406
100
AcDbText
 73
0
  0
MTEXT
  5
5D5
330
1F
100
AcDbEntity
  8
info-table
 67
0
100
AcDbMText
 50
0.0
 40
41.77189853204186
 41
0.0
 71
1
 72
5
 73
1
  1
Project: 150 Patricia Drive
 10
-2088.594926602093
 20
-2485.4279626564908
 30
0.0
  0
MTEXT
  5
5D6
330
1F
100
AcDbEntity
  8
info-table
 67
0
100
AcDbMText
 50
0.0
 40
41.77189853204186
 41
0.0
 71
1
 72
5
 73
1
  1
Design: Design 2: Max Panels
 10
-2088.594926602093
 20
-2548.0858104545537
 30
0.0
  0
MTEXT
  5
5D7
330
1F
100
AcDbEntity
  8
info-table
 67
0
100
AcDbMText
 50
0.0
 40
41.77189853204186
 41
0.0
 71
1
 72
5
 73
1
  1
https://portal.scanifly.com/projects/688390446abbf38ae6b442cf/68877436c3ec1838f3721872/v3
 10
-2088.594926602093
 20
-2610.7436582526166
 30
0.0
  0
MTEXT
  5
5D8
330
1F
100
AcDbEntity
  8
info-table
 67
0
100
AcDbMText
 50
0.0
 40
41.77189853204186
 41
0.0
 71
1
 72
5
 73
1
  1
Segment Name
 10
-2088.594926602093
 20
-2736.059353848742
 30
0.0
  0
MTEXT
  5
5D9
330
1F
100
AcDbEntity
  8
info-table
 67
0
100
AcDbMText
 50
0.0
 40
41.77189853204186
 41
0.0
 71
1
 72
5
 73
1
  1
Area (ft²)
 10
-1586.3321442175907
 20
-2736.059353848742
 30
0.0
  0
MTEXT
  5
5DA
330
1F
100
AcDbEntity
  8
info-table
 67
0
100
AcDbMText
 50
0.0
 40
41.77189853204186
 41
0.0
 71
1
 72
5
 73
1
  1
Tilt
 10
-1167.613158897172
 20
-2736.059353848742
 30
0.0
  0
MTEXT
  5
5DB
330
1F
100
AcDbEntity
  8
info-table
 67
0
100
AcDbMText
 50
0.0
 40
41.77189853204186
 41
0.0
 71
1
 72
5
 73
1
  1
Azimuth
 10
-957.7536662369628
 20
-2736.059353848742
 30
0.0
  0
MTEXT
  5
5DC
330
1F
100
AcDbEntity
  8
info-table
 67
0
100
AcDbMText
 50
0.0
 40
41.77189853204186
 41
0.0
 71
1
 72
5
 73
1
  1
ASA
 10
-664.3503765126698
 20
-2736.059353848742
 30
0.0
  0
MTEXT
  5
5DD
330
1F
100
AcDbEntity
  8
info-table
 67
0
100
AcDbMText
 50
0.0
 40
41.77189853204186
 41
0.0
 71
1
 72
5
 73
1
  1
TOF
 10
-412.7189853204186
 20
-2736.059353848742
 30
0.0
  0
MTEXT
  5
5DE
330
1F
100
AcDbEntity
  8
info-table
 67
0
100
AcDbMText
 50
0.0
 40
41.77189853204186
 41
0.0
 71
1
 72
5
 73
1
  1
TSRF
 10
-161.08759412816744
 20
-2736.059353848742
 30
0.0
  0
MTEXT
  5
5DF
330
1F
100
AcDbEntity
  8
info-table
 67
0
100
AcDbMText
 50
0.0
 40
41.77189853204186
 41
0.0
 71
1
 72
5
 73
1
  1
Module PMax
 10
90.54379706408372
 20
-2736.059353848742
 30
0.0
  0
MTEXT
  5
5E0
330
1F
100
AcDbEntity
  8
info-table
 67
0
100
AcDbMText
 50
0.0
 40
41.77189853204186
 41
0.0
 71
1
 72
5
 73
1
  1
Module Count
 10
551.0346809165442
 20
-2736.059353848742
 30
0.0
  0
MTEXT
  5
5E1
330
1F
100
AcDbEntity
  8
info-table
 67
0
100
AcDbMText
 50
0.0
 40
41.77189853204186
 41
0.0
 71
1
 72
5
 73
1
  1
kW DC STC
 10
1053.2974633010465
 20
-2736.059353848742
 30
0.0
  0
MTEXT
  5
5E2
330
1F
100
AcDbEntity
  8
info-table
 67
0
100
AcDbMText
 50
0.0
 40
41.77189853204186
 41
0.0
 71
1
 72
5
 73
1
  1
Module Manufacturer
 10
1430.2445500894232
 20
-2736.059353848742
 30
0.0
  0
MTEXT
  5
5E3
330
1F
100
AcDbEntity
  8
info-table
 67
0
100
AcDbMText
 50
0.0
 40
41.77189853204186
 41
0.0
 71
1
 72
5
 73
1
  1
Module Model
 10
2224.9106221982183
 20
-2736.059353848742
 30
0.0
  0
MTEXT
  5
5E4
330
1F
100
AcDbEntity
  8
info-table
 67
0
100
AcDbMText
 50
0.0
 40
41.77189853204186
 41
0.0
 71
1
 72
5
 73
1
  1
Segment A
 10
-2088.594926602093
 20
-2798.717201646805
 30
0.0
  0
MTEXT
  5
5E5
330
1F
100
AcDbEntity
  8
info-table
 67
0
100
AcDbMText
 50
0.0
 40
41.77189853204186
 41
0.0
 71
1
 72
5
 73
1
  1
401.29
 10
-1586.3321442175907
 20
-2798.717201646805
 30
0.0
  0
MTEXT
  5
5E6
330
1F
100
AcDbEntity
  8
info-table
 67
0
100
AcDbMText
 50
0.0
 40
41.77189853204186
 41
0.0
 71
1
 72
5
 73
1
  1
18.5°
 10
-1167.613158897172
 20
-2798.717201646805
 30
0.0
  0
MTEXT
  5
5E7
330
1F
100
AcDbEntity
  8
info-table
 67
0
100
AcDbMText
 50
0.0
 40
41.77189853204186
 41
0.0
 71
1
 72
5
 73
1
  1
143.6°
 10
-957.7536662369628
 20
-2798.717201646805
 30
0.0
  0
MTEXT
  5
5E8
330
1F
100
AcDbEntity
  8
info-table
 67
0
100
AcDbMText
 50
0.0
 40
41.77189853204186
 41
0.0
 71
1
 72
5
 73
1
  1
95.51%
 10
-664.3503765126698
 20
-2798.717201646805
 30
0.0
  0
MTEXT
  5
5E9
330
1F
100
AcDbEntity
  8
info-table
 67
0
100
AcDbMText
 50
0.0
 40
41.77189853204186
 41
0.0
 71
1
 72
5
 73
1
  1
93.55%
 10
-412.7189853204186
 20
-2798.717201646805
 30
0.0
  0
MTEXT
  5
5EA
330
1F
100
AcDbEntity
  8
info-table
 67
0
100
AcDbMText
 50
0.0
 40
41.77189853204186
 41
0.0
 71
1
 72
5
 73
1
  1
89.35%
 10
-161.08759412816744
 20
-2798.717201646805
 30
0.0
  0
MTEXT
  5
5EB
330
1F
100
AcDbEntity
  8
info-table
 67
0
100
AcDbMText
 50
0.0
 40
41.77189853204186
 41
0.0
 71
1
 72
5
 73
1
  1
500
 10
90.54379706408372
 20
-2798.717201646805
 30
0.0
  0
MTEXT
  5
5EC
330
1F
100
AcDbEntity
  8
info-table
 67
0
100
AcDbMText
 50
0.0
 40
41.77189853204186
 41
0.0
 71
1
 72
5
 73
1
  1
14
 10
551.0346809165442
 20
-2798.717201646805
 30
0.0
  0
MTEXT
  5
5ED
330
1F
100
AcDbEntity
  8
info-table
 67
0
100
AcDbMText
 50
0.0
 40
41.77189853204186
 41
0.0
 71
1
 72
5
 73
1
  1
7
 10
1053.2974633010465
 20
-2798.717201646805
 30
0.0
  0
MTEXT
  5
5EE
330
1F
100
AcDbEntity
  8
info-table
 67
0
100
AcDbMText
 50
0.0
 40
41.77189853204186
 41
0.0
 71
1
 72
5
 73
1
  1
Thornova
 10
1430.2445500894232
 20
-2798.717201646805
 30
0.0
  0
MTEXT
  5
5EF
330
1F
100
AcDbEntity
  8
info-table
 67
0
100
AcDbMText
 50
0.0
 40
41.77189853204186
 41
0.0
 71
1
 72
5
 73
1
  1
TS-BBT54-G11
 10
2224.9106221982183
 20
-2798.717201646805
 30
0.0
  0
MTEXT
  5
5F0
330
1F
100
AcDbEntity
  8
info-table
 67
0
100
AcDbMText
 50
0.0
 40
41.77189853204186
 41
0.0
 71
1
 72
5
 73
1
  1
Segment B
 10
-2088.594926602093
 20
-2861.3750494448677
 30
0.0
  0
MTEXT
  5
5F1
330
1F
100
AcDbEntity
  8
info-table
 67
0
100
AcDbMText
 50
0.0
 40
41.77189853204186
 41
0.0
 71
1
 72
5
 73
1
  1
404.56
 10
-1586.3321442175907
 20
-2861.3750494448677
 30
0.0
  0
MTEXT
  5
5F2
330
1F
100
AcDbEntity
  8
info-table
 67
0
100
AcDbMText
 50
0.0
 40
41.77189853204186
 41
0.0
 71
1
 72
5
 73
1
  1
19.4°
 10
-1167.613158897172
 20
-2861.3750494448677
 30
0.0
  0
MTEXT
  5
5F3
330
1F
100
AcDbEntity
  8
info-table
 67
0
100
AcDbMText
 50
0.0
 40
41.77189853204186
 41
0.0
 71
1
 72
5
 73
1
  1
234.1°
 10
-957.7536662369628
 20
-2861.3750494448677
 30
0.0
  0
MTEXT
  5
5F4
330
1F
100
AcDbEntity
  8
info-table
 67
0
100
AcDbMText
 50
0.0
 40
41.77189853204186
 41
0.0
 71
1
 72
5
 73
1
  1
96.06%
 10
-664.3503765126698
 20
-2861.3750494448677
 30
0.0
  0
MTEXT
  5
5F5
330
1F
100
AcDbEntity
  8
info-table
 67
0
100
AcDbMText
 50
0.0
 40
41.77189853204186
 41
0.0
 71
1
 72
5
 73
1
  1
88.52%
 10
-412.7189853204186
 20
-2861.3750494448677
 30
0.0
  0
MTEXT
  5
5F6
330
1F
100
AcDbEntity
  8
info-table
 67
0
100
AcDbMText
 50
0.0
 40
41.77189853204186
 41
0.0
 71
1
 72
5
 73
1
  1
85.03%
 10
-161.08759412816744
 20
-2861.3750494448677
 30
0.0
  0
MTEXT
  5
5F7
330
1F
100
AcDbEntity
  8
info-table
 67
0
100
AcDbMText
 50
0.0
 40
41.77189853204186
 41
0.0
 71
1
 72
5
 73
1
  1
500
 10
90.54379706408372
 20
-2861.3750494448677
 30
0.0
  0
MTEXT
  5
5F8
330
1F
100
AcDbEntity
  8
info-table
 67
0
100
AcDbMText
 50
0.0
 40
41.77189853204186
 41
0.0
 71
1
 72
5
 73
1
  1
8
 10
551.0346809165442
 20
-2861.3750494448677
 30
0.0
  0
MTEXT
  5
5F9
330
1F
100
AcDbEntity
  8
info-table
 67
0
100
AcDbMText
 50
0.0
 40
41.77189853204186
 41
0.0
 71
1
 72
5
 73
1
  1
4
 10
1053.2974633010465
 20
-2861.3750494448677
 30
0.0
  0
MTEXT
  5
5FA
330
1F
100
AcDbEntity
  8
info-table
 67
0
100
AcDbMText
 50
0.0
 40
41.77189853204186
 41
0.0
 71
1
 72
5
 73
1
  1
Thornova
 10
1430.2445500894232
 20
-2861.3750494448677
 30
0.0
  0
MTEXT
  5
5FB
330
1F
100
AcDbEntity
  8
info-table
 67
0
100
AcDbMText
 50
0.0
 40
41.77189853204186
 41
0.0
 71
1
 72
5
 73
1
  1
TS-BBT54-G11
 10
2224.9106221982183
 20
-2861.3750494448677
 30
0.0
  0
MTEXT
  5
5FC
330
1F
100
AcDbEntity
  8
info-table
 67
0
100
AcDbMText
 50
0.0
 40
41.77189853204186
 41
0.0
 71
1
 72
5
 73
1
  1
Segment C
 10
-2088.594926602093
 20
-2924.03289724293
 30
0.0
  0
MTEXT
  5
5FD
330
1F
100
AcDbEntity
  8
info-table
 67
0
100
AcDbMText
 50
0.0
 40
41.77189853204186
 41
0.0
 71
1
 72
5
 73
1
  1
213.89
 10
-1586.3321442175907
 20
-2924.03289724293
 30
0.0
  0
MTEXT
  5
5FE
330
1F
100
AcDbEntity
  8
info-table
 67
0
100
AcDbMText
 50
0.0
 40
41.77189853204186
 41
0.0
 71
1
 72
5
 73
1
  1
19.1°
 10
-1167.613158897172
 20
-2924.03289724293
 30
0.0
  0
MTEXT
  5
5FF
330
1F
100
AcDbEntity
  8
info-table
 67
0
100
AcDbMText
 50
0.0
 40
41.77189853204186
 41
0.0
 71
1
 72
5
 73
1
  1
234.3°
 10
-957.7536662369628
 20
-2924.03289724293
 30
0.0
  0
MTEXT
  5
600
330
1F
100
AcDbEntity
  8
info-table
 67
0
100
AcDbMText
 50
0.0
 40
41.77189853204186
 41
0.0
 71
1
 72
5
 73
1
  1
93.77%
 10
-664.3503765126698
 20
-2924.03289724293
 30
0.0
  0
MTEXT
  5
601
330
1F
100
AcDbEntity
  8
info-table
 67
0
100
AcDbMText
 50
0.0
 40
41.77189853204186
 41
0.0
 71
1
 72
5
 73
1
  1
88.45%
 10
-412.7189853204186
 20
-2924.03289724293
 30
0.0
  0
MTEXT
  5
602
330
1F
100
AcDbEntity
  8
info-table
 67
0
100
AcDbMText
 50
0.0
 40
41.77189853204186
 41
0.0
 71
1
 72
5
 73
1
  1
82.94%
 10
-161.08759412816744
 20
-2924.03289724293
 30
0.0
  0
MTEXT
  5
603
330
1F
100
AcDbEntity
  8
info-table
 67
0
100
AcDbMText
 50
0.0
 40
41.77189853204186
 41
0.0
 71
1
 72
5
 73
1
  1
500
 10
90.54379706408372
 20
-2924.03289724293
 30
0.0
  0
MTEXT
  5
604
330
1F
100
AcDbEntity
  8
info-table
 67
0
100
AcDbMText
 50
0.0
 40
41.77189853204186
 41
0.0
 71
1
 72
5
 73
1
  1
3
 10
551.0346809165442
 20
-2924.03289724293
 30
0.0
  0
MTEXT
  5
605
330
1F
100
AcDbEntity
  8
info-table
 67
0
100
AcDbMText
 50
0.0
 40
41.77189853204186
 41
0.0
 71
1
 72
5
 73
1
  1
1.5
 10
1053.2974633010465
 20
-2924.03289724293
 30
0.0
  0
MTEXT
  5
606
330
1F
100
AcDbEntity
  8
info-table
 67
0
100
AcDbMText
 50
0.0
 40
41.77189853204186
 41
0.0
 71
1
 72
5
 73
1
  1
Thornova
 10
1430.2445500894232
 20
-2924.03289724293
 30
0.0
  0
MTEXT
  5
607
330
1F
100
AcDbEntity
  8
info-table
 67
0
100
AcDbMText
 50
0.0
 40
41.77189853204186
 41
0.0
 71
1
 72
5
 73
1
  1
TS-BBT54-G11
 10
2224.9106221982183
 20
-2924.03289724293
 30
0.0
  0
ENDSEC
  0
SECTION
  2
OBJECTS
  0
DICTIONARY
  5
C
330
0
100
AcDbDictionary
281
1
  3
ACAD_COLOR
350
4A3
  3
ACAD_GROUP
350
4A4
  3
ACAD_LAYOUT
350
4A5
  3
ACAD_MATERIAL
350
4A6
  3
ACAD_MLEADERSTYLE
350
4A7
  3
ACAD_MLINESTYLE
350
4A8
  3
ACAD_PLOTSETTINGS
350
4A9
  3
ACAD_PLOTSTYLENAME
350
4AB
  3
ACAD_SCALELIST
350
4AC
  3
ACAD_TABLESTYLE
350
4AD
  3
ACAD_VISUALSTYLE
350
4AE
  3
ACAD_IMAGE_VARS
350
59F
  3
ACAD_IMAGE_DICT
350
5A0
  0
DICTIONARY
  5
4A3
330
C
100
AcDbDictionary
281
1
  0
DICTIONARY
  5
4A4
330
C
100
AcDbDictionary
281
1
  0
DICTIONARY
  5
4A5
330
C
100
AcDbDictionary
281
1
  3
Model
350
4AF
  3
Layout1
350
4B0
  0
DICTIONARY
  5
4A6
330
C
100
AcDbDictionary
281
1
  3
ByBlock
350
599
  3
ByLayer
350
59A
  3
Global
350
59B
  0
DICTIONARY
  5
4A7
330
C
100
AcDbDictionary
281
1
  3
Standard
350
59C
  0
DICTIONARY
  5
4A8
330
C
100
AcDbDictionary
281
1
  3
STANDARD
350
59D
  0
DICTIONARY
  5
4A9
330
C
100
AcDbDictionary
281
1
  0
ACDBPLACEHOLDER
  5
4AA
330
4AB
  0
ACDBDICTIONARYWDFLT
  5
4AB
330
C
100
AcDbDictionary
281
1
  3
Normal
350
4AA
100
AcDbDictionaryWithDefault
340
4AA
  0
DICTIONARY
  5
4AC
330
C
100
AcDbDictionary
281
1
  0
DICTIONARY
  5
4AD
330
C
100
AcDbDictionary
281
1
  0
DICTIONARY
  5
4AE
330
C
100
AcDbDictionary
281
1
  0
LAYOUT
  5
4AF
330
4A5
100
AcDbPlotSettings
  1

  2
DWFx ePlot (XPS Compatible).pc3
  4
ANSI_A_(8.50_x_11.00_Inches)
  6

 40
5.8
 41
17.8
 42
5.8
 43
17.8
 44
215.9
 45
279.4
 46
0.0
 47
0.0
 48
0.0
 49
0.0
140
0.0
141
0.0
142
1.0
143
14.53
 70
11952
 72
0
 73
1
 74
0
  7

 75
0
147
0.069
148
114.98
149
300.29
100
AcDbLayout
  1
Model
 70
1
 71
0
 10
0.0
 20
0.0
 11
12.0
 21
9.0
 12
0.0
 22
0.0
 32
0.0
 14
0.0
 24
0.0
 34
0.0
 15
0.0
 25
0.0
 35
0.0
146
0.0
 13
0.0
 23
0.0
 33
0.0
 16
1.0
 26
0.0
 36
0.0
 17
0.0
 27
1.0
 37
0.0
 76
0
330
1F
  0
LAYOUT
  5
4B0
330
4A5
100
AcDbPlotSettings
  1

  2
DWFx ePlot (XPS Compatible).pc3
  4
ANSI_A_(8.50_x_11.00_Inches)
  6

 40
5.8
 41
17.8
 42
5.8
 43
17.8
 44
215.9
 45
279.4
 46
0.0
 47
0.0
 48
0.0
 49
0.0
140
0.0
141
0.0
142
1.0
143
1.0
 70
688
 72
0
 73
1
 74
5
  7
acad.ctb
 75
16
147
1.0
148
0.0
149
0.0
100
AcDbLayout
  1
Layout1
 70
1
 71
1
 10
-0.7
 20
-0.23
 11
10.3
 21
8.27
 12
0.0
 22
0.0
 32
0.0
 14
0.63
 24
0.8
 34
0.0
 15
9.0
 25
7.2
 35
0.0
146
0.0
 13
0.0
 23
0.0
 33
0.0
 16
1.0
 26
0.0
 36
0.0
 17
0.0
 27
1.0
 37
0.0
 76
0
330
58
  0
MATERIAL
  5
599
102
{ACAD_REACTORS
330
4A6
102
}
330
4A6
100
AcDbMaterial
  1
ByBlock
 94
63
  0
MATERIAL
  5
59A
102
{ACAD_REACTORS
330
4A6
102
}
330
4A6
100
AcDbMaterial
  1
ByLayer
 94
63
  0
MATERIAL
  5
59B
102
{ACAD_REACTORS
330
4A6
102
}
330
4A6
100
AcDbMaterial
  1
Global
 94
63
  0
MLEADERSTYLE
  5
59C
102
{ACAD_REACTORS
330
4A7
102
}
330
4A7
100
AcDbMLeaderStyle
179
2
170
2
171
1
172
0
 90
2
 40
0.0
 41
0.0
173
1
 91
-1056964608
340
14
 92
-2
290
1
 42
2.0
291
1
 43
8.0
  3
Standard
341
0
 44
4.0
300

342
11
174
1
178
1
175
1
176
0
 93
-1056964608
 45
4.0
292
0
297
0
 46
4.0
343
0
 94
-1056964608
 47
1.0
 49
1.0
140
1.0
293
1
141
0.0
294
1
177
0
142
1.0
295
0
296
0
143
3.75
271
0
272
9
273
9
  0
MLINESTYLE
  5
59D
102
{ACAD_REACTORS
330
4A8
102
}
330
4A8
100
AcDbMlineStyle
  2
STANDARD
 70
0
  3

 62
256
 51
90.0
 52
90.0
 71
2
 49
0.5
 62
256
  6
BYLAYER
 49
-0.5
 62
256
  6
BYLAYER
  0
RASTERVARIABLES
  5
59F
102
{ACAD_REACTORS
330
C
102
}
330
C
100
AcDbRasterVariables
 90
0
 70
0
 71
1
 72
0
  0
DICTIONARY
  5
5A0
330
C
100
AcDbDictionary
281
1
  3
ground-150PatriciaDrive_Design2MaxPanels_2DWireframe.jpg
350
5A1
  3
orthomosaic-150PatriciaDrive_Design2MaxPanels_2DWireframe.jpg
350
5A4
  0
IMAGEDEF
  5
5A1
330
5A0
102
{ACAD_REACTORS
330
5A0
330
5A3
102
}
100
AcDbRasterImageDef
 90
0
  1
ground-150PatriciaDrive_Design2MaxPanels_2DWireframe.jpg
 10
1024.0
 20
1024.0
 11
0.01
 21
0.01
280
1
281
0
  0
IMAGEDEF_REACTOR
  5
5A3
330
5A2
100
AcDbRasterImageDefReactor
 90
2
330
5A2
  0
IMAGEDEF
  5
5A4
330
5A0
102
{ACAD_REACTORS
330
5A0
330
5A6
102
}
100
AcDbRasterImageDef
 90
0
  1
orthomosaic-150PatriciaDrive_Design2MaxPanels_2DWireframe.jpg
 10
5109.0
 20
5087.0
 11
0.01
 21
0.01
280
1
281
0
  0
IMAGEDEF_REACTOR
  5
5A6
330
5A5
100
AcDbRasterImageDefReactor
 90
2
330
5A5
  0
ENDSEC
  0
EOF
